# xmcd
#
# Track frame offsets:
#	150
#	15866
#	32694
#	46795
#	69774
#	86045
#	100872
#	114624
#	134116
#	153112
#
# Disc length: 2316 seconds
#
# Revision: 0
# Processed by: cddbd v1.5.2PL0 Copyright (c) Steve Scherf et al.
# Submitted via: EZCDAudioConverter 1.3.4.1
#
DISCID=71090a0a
DTITLE=Ross Williams Perry - ...To The Other Side
DYEAR=2011
DGENRE=
TTITLE0=Enough For Greed
TTITLE1=Blind Side Of The Room
TTITLE2=Pay My Dues
TTITLE3=Mystic Ride
TTITLE4=Got It Bad
TTITLE5=My Light
TTITLE6=I Wanna
TTITLE7=Could I be Yours
TTITLE8=I'll Make You Mine
TTITLE9=Eternal Love Dance
EXTD=
EXTT0=
EXTT1=
EXTT2=
EXTT3=
EXTT4=
EXTT5=
EXTT6=
EXTT7=
EXTT8=
EXTT9=
PLAYORDER=
